<?xml version="1.0" standalone="no"?>
<!DOCTYPE svg PUBLIC "-//W3C//DTD SVG 20010904//EN"
 "http://www.w3.org/TR/2001/REC-SVG-20010904/DTD/svg10.dtd">
<svg version="1.0" xmlns="http://www.w3.org/2000/svg"
 width="507.000000pt" height="505.000000pt" viewBox="0 0 507.000000 505.000000"
 preserveAspectRatio="xMidYMid meet">

<g transform="translate(0.000000,505.000000) scale(0.100000,-0.100000)"
fill="#FFFFFF" stroke="none">
<path d="M1778 4206 c-438 -111 -800 -204 -804 -208 -6 -6 -6 -685 -1 -823 l2
-40 -312 -3 -312 -2 -19 -63 c-11 -34 -72 -225 -136 -423 -64 -199 -116 -364
-116 -368 0 -3 251 -7 557 -8 l557 -3 66 -130 c161 -320 309 -525 554 -771
233 -232 449 -391 712 -522 l81 -41 91 50 c291 156 585 381 779 599 184 206
325 412 453 665 l75 150 347 3 346 2 87 268 c111 339 175 549 175 573 0 18
-16 19 -367 21 l-368 3 4 431 4 432 -34 10 c-64 21 -1599 402 -1611 401 -7 -1
-372 -92 -810 -203z m1599 -62 l783 -197 0 -366 c0 -201 -3 -383 -6 -403 -6
-37 -8 -38 -46 -38 -37 0 -40 2 -34 23 4 12 9 180 13 372 l6 350 -747 186
-746 187 -737 -184 c-405 -102 -741 -187 -746 -191 -11 -6 -2 -664 9 -715 6
-27 5 -28 -34 -28 -38 0 -40 1 -46 38 -3 20 -6 202 -6 403 l0 366 608 152
c334 84 681 172 772 196 91 24 167 44 170 44 2 1 357 -87 787 -195z m-435
-251 l126 -6 -79 -27 c-44 -15 -85 -32 -92 -38 -8 -7 -106 -10 -272 -9 -272 1
-409 -10 -567 -43 -230 -49 -326 -86 -430 -162 -163 -121 -250 -267 -250 -420
0 -45 -3 -58 -15 -58 -13 0 -15 12 -11 73 16 235 194 446 470 556 258 104 695
156 1120 134z m152 -104 c-12 -19 -194 -99 -226 -99 l-31 0 24 19 c72 56 258
120 233 80z m376 -123 c45 -44 87 -116 68 -116 -17 0 -153 142 -173 181 l-17
31 44 -30 c24 -16 59 -46 78 -66z m-733 76 l41 -7 -33 -39 -33 -39 -145 11
c-314 25 -585 5 -793 -59 -91 -28 -230 -124 -284 -196 -60 -80 -67 -85 -39
-33 34 64 153 181 224 219 127 69 273 109 475 130 58 6 119 13 135 15 56 6
410 5 452 -2z m405 -24 l59 -33 -7 -40 c-16 -95 -23 -105 -107 -142 l-78 -34
-62 37 c-34 21 -64 39 -66 40 -1 2 6 31 18 66 21 63 22 64 94 100 39 20 76 37
81 37 5 1 35 -14 68 -31z m287 -97 l61 -69 -14 -62 c-8 -34 -16 -64 -19 -66
-2 -2 -37 -6 -78 -9 l-74 -5 -58 66 c-63 70 -62 64 -36 166 10 40 19 44 110
47 46 1 48 0 108 -68z m-910 -21 c79 -6 146 -12 148 -13 3 -3 -17 -67 -20 -67
-1 0 -54 7 -117 14 -377 47 -708 20 -905 -74 -37 -18 -89 -54 -120 -85 -43
-41 -51 -47 -38 -23 10 17 39 49 64 72 160 145 516 208 988 176z m469 -139 c8
-4 18 -42 24 -91 l10 -83 -56 -56 -55 -55 -61 29 c-34 16 -65 34 -70 40 -5 6
-12 54 -15 106 l-6 94 57 43 57 42 51 -30 c28 -17 57 -34 64 -39z m-248 -59
c13 -99 14 -183 3 -211 -9 -22 -11 -18 -27 37 -19 68 -23 154 -12 220 11 60
25 41 36 -46z m-330 -23 c96 -11 182 -22 191 -25 11 -3 19 -21 23 -51 3 -25 5
-48 3 -49 -2 -2 -55 5 -118 16 -324 57 -649 77 -781 49 -108 -23 -198 -90
-213 -158 -4 -18 -13 -31 -22 -31 -12 0 -14 8 -10 36 28 170 244 252 627 237
69 -2 204 -13 300 -24z m1083 -45 l32 -65 -45 -85 -45 -84 -76 0 -76 0 -27 63
c-14 34 -26 67 -26 73 0 7 18 43 40 80 44 75 54 81 138 83 l52 1 33 -66z m87
-91 c-20 -63 -70 -149 -106 -184 l-34 -33 0 25 c0 14 22 65 49 113 74 132 120
172 91 79z m-454 1 l81 -16 30 -67 30 -67 -51 -55 -51 -55 -101 23 -100 24
-22 67 -22 67 52 47 c29 26 58 48 63 48 6 0 46 -7 91 -16z m-1111 -14 c201
-19 633 -107 666 -136 8 -8 24 -14 35 -14 20 0 44 -17 44 -32 0 -4 -10 -8 -22
-8 -21 0 -21 -1 7 -30 16 -16 25 -30 19 -30 -5 0 -54 14 -108 30 l-99 30
-1072 0 -1071 0 -64 -197 c-35 -109 -85 -262 -111 -340 l-48 -143 2223 0 2222
0 111 340 111 340 -664 0 c-365 0 -664 4 -664 8 0 31 26 32 697 32 370 0 673
-3 673 -6 0 -4 -55 -175 -122 -380 l-122 -374 -2253 0 c-1239 0 -2253 3 -2253
8 0 4 55 175 122 380 l122 372 1000 1 1001 1 -91 23 c-187 47 -343 69 -484 69
-120 0 -140 -2 -177 -22 -72 -38 -101 -23 -40 21 46 34 85 47 163 56 100 12
127 12 249 1z m1060 -244 c50 -12 104 -31 119 -41 l28 -19 -23 -8 c-42 -16
-185 10 -253 45 -61 31 -61 31 -31 38 50 11 66 10 160 -15z m-1299 -112 c-3
-25 -8 -50 -12 -55 -3 -5 -50 -9 -105 -9 -88 0 -99 -2 -99 -17 0 -10 -3 -28
-6 -40 -6 -23 -5 -23 76 -23 l83 0 -7 -46 c-3 -25 -8 -50 -12 -55 -3 -5 -41
-9 -84 -9 l-79 0 -11 -57 c-21 -113 -14 -103 -79 -103 l-58 0 8 45 c5 25 22
125 39 221 17 97 33 181 36 185 3 5 75 9 161 9 l156 0 -7 -46z m318 32 c69
-29 81 -87 50 -247 -29 -152 -74 -199 -198 -206 -87 -5 -132 14 -159 69 -17
34 -17 42 -1 140 24 157 57 214 141 243 50 18 125 19 167 1z m433 -9 c39 -21
48 -49 39 -119 -8 -55 -25 -97 -50 -117 -17 -14 -22 -71 -7 -86 7 -8 41 -101
41 -112 0 -2 -30 -3 -67 -1 l-67 3 -24 83 c-19 62 -29 82 -42 82 -19 0 -23
-15 -36 -117 l-7 -53 -63 0 c-35 0 -64 3 -64 8 1 26 79 432 85 442 12 19 220
9 262 -13z m426 12 c40 -11 45 -26 27 -73 -9 -26 -11 -26 -110 -26 -99 0 -100
0 -100 -24 0 -13 -3 -31 -6 -40 -5 -14 6 -16 81 -16 77 0 86 -2 81 -17 -2 -10
-7 -33 -11 -50 l-7 -33 -84 0 c-60 0 -84 -4 -84 -12 0 -7 -3 -23 -6 -35 -6
-23 -5 -23 95 -23 110 0 105 3 95 -62 l-7 -38 -158 0 c-143 0 -159 2 -159 17
0 19 68 411 75 431 6 15 222 17 278 1z m903 -35 c-3 -25 -8 -50 -12 -55 -3 -5
-39 -9 -80 -9 -41 0 -74 -1 -74 -3 0 -5 -50 -292 -56 -319 -5 -27 -8 -28 -66
-28 -57 0 -60 1 -55 23 3 12 15 78 27 147 11 69 23 137 26 153 l6 27 -77 0
-77 0 7 48 c4 26 9 50 12 55 2 4 99 7 215 7 l211 0 -7 -46z m-502 7 c22 -24
30 -79 17 -113 -10 -26 -15 -28 -67 -28 -55 0 -56 0 -50 26 9 35 -9 54 -53 54
-40 0 -61 -14 -61 -42 0 -21 20 -33 105 -59 53 -16 70 -27 85 -52 39 -63 15
-154 -48 -190 -36 -21 -140 -33 -196 -23 -19 4 -49 18 -66 32 -26 22 -30 32
-30 75 l0 49 60 0 c52 0 60 -2 60 -19 0 -10 6 -24 14 -30 20 -17 87 -10 100
11 15 25 -13 51 -81 72 -32 10 -67 25 -79 33 -46 30 -56 113 -19 169 14 22 23
24 93 25 42 0 97 6 122 13 64 19 75 18 94 -3z m-1958 -683 c223 -477 661 -940
1123 -1189 l81 -44 73 39 c448 241 859 662 1092 1119 l70 137 42 0 c41 0 42
-1 33 -24 -29 -77 -137 -271 -223 -401 -250 -376 -581 -680 -988 -906 -49 -27
-94 -49 -99 -49 -5 0 -52 23 -102 51 -461 256 -832 621 -1090 1074 -47 83
-128 241 -128 250 0 3 19 5 43 5 43 0 43 0 73 -62z m812 -81 c4 -20 -25 -34
-40 -19 -15 15 -1 44 19 40 10 -2 19 -11 21 -21z m62 -53 c0 -9 -25 -52 -55
-95 l-55 -79 55 0 c48 0 55 -2 55 -20 0 -19 -7 -20 -90 -20 -65 0 -90 3 -90
13 0 6 25 48 56 92 l55 80 -55 3 c-48 3 -56 6 -56 22 0 18 7 20 90 20 76 0 90
-2 90 -16z m182 -89 c20 -55 37 -106 37 -112 2 -24 -45 -14 -57 12 -9 19 -19
25 -45 25 -26 0 -36 -6 -45 -25 -8 -17 -20 -25 -37 -25 l-25 0 40 112 c22 61
40 113 40 115 0 3 12 3 27 1 25 -3 31 -12 65 -103z m216 89 c27 -19 31 -81 6
-91 -15 -5 -15 -7 0 -15 10 -6 16 -23 16 -48 0 -50 -18 -60 -104 -60 l-66 0 0
115 0 115 63 0 c40 0 70 -5 85 -16z m120 -101 l3 -113 -31 0 -30 0 0 108 c0
60 3 112 7 116 4 4 16 6 28 4 19 -3 20 -11 23 -115z m187 92 c0 -16 -8 -21
-42 -23 -34 -3 -43 -7 -43 -22 0 -14 8 -20 33 -22 24 -2 32 -8 32 -23 0 -15
-8 -21 -32 -23 -27 -3 -33 -7 -33 -28 0 -22 4 -24 45 -24 38 0 45 -3 45 -20 0
-18 -7 -20 -75 -20 l-75 0 0 108 c0 60 3 112 7 116 4 4 37 6 73 4 57 -3 65 -5
65 -23z m186 15 c11 -6 19 -21 19 -35 0 -20 -5 -25 -25 -25 -16 0 -25 6 -25
16 0 11 -8 14 -32 12 l-33 -3 -3 -72 -3 -73 36 0 c24 0 35 4 35 15 0 9 9 15
25 15 21 0 25 -5 25 -29 0 -34 -13 -41 -81 -41 -84 0 -89 6 -89 114 0 87 2 94
23 104 29 14 103 15 128 2z m-545 -495 l18 -55 60 0 c67 -1 68 1 -8 -55 -27
-20 -27 -20 -12 -64 23 -63 21 -65 -28 -31 -25 16 -49 30 -53 30 -5 0 -28 -14
-51 -31 -47 -34 -49 -31 -26 32 15 44 15 44 -12 64 -76 56 -75 54 -7 55 l62 0
16 55 c8 30 17 55 20 55 2 0 12 -25 21 -55z"/>
<path d="M1946 2797 c-39 -40 -63 -228 -30 -241 58 -22 92 9 110 104 17 92 18
132 2 148 -19 19 -57 14 -82 -11z"/>
<path d="M2356 2788 c-3 -13 -6 -35 -6 -50 0 -25 4 -28 34 -28 42 0 58 19 54
62 -3 30 -6 33 -39 36 -31 3 -37 -1 -43 -20z"/>
<path d="M2377 1979 c-10 -36 -9 -39 13 -39 23 0 24 6 6 39 l-13 23 -6 -23z"/>
<path d="M2570 2010 c0 -16 7 -20 30 -20 23 0 30 4 30 20 0 16 -7 20 -30 20
-23 0 -30 -4 -30 -20z"/>
<path d="M2570 1915 c0 -21 5 -25 30 -25 25 0 30 4 30 25 0 21 -5 25 -30 25
-25 0 -30 -4 -30 -25z"/>
</g>
</svg>
